<?xml version="1.0" encoding="UTF-8"?>
<svg width="50px" height="50px" viewBox="0 0 50 50" version="1.1" xmlns="http://www.w3.org/2000/svg" xmlns:xlink="http://www.w3.org/1999/xlink">
    <!-- Generator: Sketch 48.1 (47250) - http://www.bohemiancoding.com/sketch -->
    <title>002-speech-bubble</title>
    <desc>Created with Sketch.</desc>
    <defs></defs>
    <g id="Desktop---mac-1280---high-fid" stroke="none" stroke-width="1" fill="none" fill-rule="evenodd" transform="translate(-1036.000000, -869.000000)">
        <g id="002-speech-bubble" transform="translate(1036.000000, 869.000000)" fill-rule="nonzero">
            <path d="M22.0304481,29.8574338 C22.2239308,30.0509165 22.4785132,30.1527495 22.743279,30.1527495 C23.0080448,30.1527495 23.2626273,30.0509165 23.45611,29.8574338 L31.8267821,21.4867617 C32.2239308,21.089613 32.2239308,20.4582485 31.8267821,20.0610998 C31.4296334,19.6639511 30.7982688,19.6639511 30.4011202,20.0610998 L22.743279,27.7189409 L19.5049898,24.4806517 C19.1078411,24.0835031 18.4764766,24.0835031 18.0793279,24.4806517 C17.6821792,24.8778004 17.6821792,25.509165 18.0793279,25.9063136 L22.0304481,29.8574338 Z" id="Shape" fill="#000000"></path>
            <path d="M1.5110998,45.8553971 C0.747352342,46.2321792 0.319653768,47.0468432 0.45203666,47.8818737 C0.584419552,48.7270876 1.22596741,49.3788187 2.07118126,49.5112016 C2.69236253,49.6130346 3.36446029,49.6537678 4.04674134,49.6537678 C5.90010183,49.6537678 9.43370672,49.2769857 12.8960285,46.8126273 C16.5721996,48.8391039 20.7269857,49.9083503 24.953055,49.9083503 C31.6231161,49.9083503 37.8858452,47.311609 42.6007128,42.5967413 C52.335947,32.8615071 52.335947,17.0366599 42.6007128,7.30142566 C37.8858452,2.59674134 31.6231161,-5.68434189e-14 24.953055,-5.68434189e-14 C18.2829939,-5.68434189e-14 12.0202648,2.59674134 7.30539715,7.31160896 C-1.849389,16.4663951 -2.45020367,31.1405295 5.82881874,40.98778 C4.68828921,43.3706721 3.23207739,45.0101833 1.5110998,45.8553971 Z M8.73105906,8.73727088 C13.0589613,4.40936864 18.8227088,2.01629328 24.953055,2.01629328 C31.0834012,2.01629328 36.8369654,4.39918534 41.1750509,8.73727088 C50.1159878,17.6782077 50.1159878,32.2301426 41.1750509,41.1812627 C36.8471487,45.509165 31.0834012,47.9022403 24.953055,47.9022403 C20.8593686,47.9022403 16.8471487,46.8126273 13.3339104,44.7454175 C13.1709776,44.6537678 12.9978615,44.6028513 12.8247454,44.6028513 C12.6007128,44.6028513 12.3868635,44.6741344 12.2035642,44.8167006 C9.03655804,47.2708758 5.72698574,47.6374745 4.03655804,47.6374745 C3.54775967,47.6374745 3.0691446,47.6069246 2.61089613,47.5458248 C4.8104888,46.395112 6.59256619,44.2668024 7.92657841,41.2219959 C8.0793279,40.8655804 8.01822811,40.4480652 7.75346232,40.1527495 C-0.250610998,31.0997963 0.177087576,17.3014257 8.73105906,8.73727088 Z" id="Shape" fill="#2C2F33"></path>
        </g>
    </g>
</svg>