<?xml version="1.0" encoding="UTF-8"?>
<svg width="48px" height="50px" viewBox="0 0 48 50" version="1.1" xmlns="http://www.w3.org/2000/svg" xmlns:xlink="http://www.w3.org/1999/xlink">
    <!-- Generator: Sketch 48.1 (47250) - http://www.bohemiancoding.com/sketch -->
    <title>004-arrows</title>
    <desc>Created with Sketch.</desc>
    <defs></defs>
    <g id="Desktop---mac-1280---high-fid" stroke="none" stroke-width="1" fill="none" fill-rule="evenodd" transform="translate(-611.000000, -869.000000)">
        <g id="004-arrows" transform="translate(611.000000, 869.000000)" fill="#000000" fill-rule="nonzero">
            <path d="M45.9854167,47.6114583 L20.9854167,47.6114583 C10.646875,47.6114583 2.23541667,39.2 2.23541667,28.8614583 C2.23541667,18.5229167 10.646875,10.1114583 20.9854167,10.1114583 L43.4708333,10.1114583 L36.915625,16.6666667 L38.3885417,18.1395833 L46.7208333,9.80729167 C46.721875,9.80625 46.721875,9.80625 46.7229167,9.80520833 L47.4583333,9.06979167 L46.7229167,8.334375 C46.7229167,8.33333333 46.721875,8.33333333 46.721875,8.33229167 L38.3895833,0 L36.9166667,1.47291667 L43.471875,8.028125 L20.9854167,8.028125 C9.49791667,8.028125 0.152083333,17.3739583 0.152083333,28.8614583 C0.152083333,40.3489583 9.49791667,49.6947917 20.9854167,49.6947917 L45.9854167,49.6947917 C46.5604167,49.6947917 47.0270833,49.2291667 47.0270833,48.653125 C47.0270833,48.0770833 46.5614583,47.6114583 45.9854167,47.6114583 Z" id="Shape"></path>
        </g>
    </g>
</svg>