<?xml version="1.0" encoding="UTF-8"?>
<svg width="55px" height="54px" viewBox="0 0 55 54" version="1.1" xmlns="http://www.w3.org/2000/svg" xmlns:xlink="http://www.w3.org/1999/xlink">
    <!-- Generator: Sketch 48.1 (47250) - http://www.bohemiancoding.com/sketch -->
    <title>008-box</title>
    <desc>Created with Sketch.</desc>
    <defs></defs>
    <g id="Desktop---mac-1280---high-fid" stroke="none" stroke-width="1" fill="none" fill-rule="evenodd" transform="translate(-181.000000, -869.000000)">
        <g id="008-box" transform="translate(181.000000, 869.000000)" fill="#000000" fill-rule="nonzero">
            <path d="M54.559978,11.7935954 L30.3405506,0.0778260482 C30.1258275,-0.0259420161 29.8757861,-0.0259420161 29.6611672,0.0778260482 L5.44163564,11.7935954 C5.17159092,11.9241929 5,12.1982283 5,12.4986754 L5,40.9512731 C5,41.2517203 5.17159092,41.5257557 5.44163564,41.6563531 L29.661063,53.3721225 C29.7683725,53.4240065 29.8846417,53.4500008 30.0008068,53.4500008 C30.1169719,53.4500008 30.2331369,53.4240065 30.3405506,53.3721225 L54.559978,41.6563531 C54.8300227,41.5257557 55.0016136,41.2517203 55.0016136,40.9512731 L55.0016136,12.4987798 C55.0016136,12.1981239 54.8299185,11.9242973 54.559978,11.7935954 Z M30.0008068,1.65240725 L52.4229574,12.4986754 L45.9232352,15.6428269 C45.8820826,15.6114042 45.8386379,15.5823825 45.7909217,15.5593113 L23.5210879,4.78685003 L30.0008068,1.65240725 Z M21.7564207,5.67211481 L44.1459618,16.5026194 L39.5603065,18.7208967 L17.1800379,7.89477663 L21.7564207,5.67211481 Z M44.6697985,17.9879434 L44.6697985,26.1877083 L40.386485,28.259729 L40.386485,20.059964 L44.6697985,17.9879434 Z M53.4388548,40.459993 L30.7821862,51.4195291 L30.7821862,24.7058294 L36.1865187,22.0915841 C36.5751247,21.9035697 36.7380683,21.4355695 36.5504331,21.0460738 C36.3627979,20.656787 35.8957413,20.4933053 35.5070311,20.6814241 L30.0008068,23.345048 L27.834198,22.2969279 C27.4454878,22.1087048 26.9784313,22.2721864 26.7907961,22.6615777 C26.6031608,23.0509689 26.7661045,23.5190735 27.1547105,23.7070879 L29.2194274,24.7058294 L29.2194274,51.4195291 L6.56275879,40.4597842 L6.56275879,13.7460845 L23.8156159,22.0918972 C23.9251132,22.1449296 24.0408615,22.1699843 24.1547345,22.1699843 C24.4451993,22.1699843 24.7242038,22.0069202 24.8589136,21.7272475 C25.0465489,21.3378563 24.8836052,20.8697516 24.4949992,20.6817373 L7.57865619,12.4986754 L15.3408791,8.74381654 L38.8128911,20.098068 C38.8163292,20.1028702 38.820184,20.1071503 38.8237262,20.1118481 L38.8237262,29.5072425 C38.8237262,29.7766845 38.9619783,30.0271267 39.1897243,30.1704603 C39.3162036,30.2500088 39.4604983,30.2902007 39.6052098,30.2902007 C39.7210623,30.2902007 39.8372274,30.2644153 39.9448494,30.2123224 L45.7909217,27.3843817 C46.0609664,27.2537843 46.2325573,26.9798533 46.2325573,26.6793017 L46.2325573,17.2321277 L53.4388548,13.7461889 L53.4388548,40.459993 Z" id="Shape"></path>
            <path d="M5.17441862,38.0945022 L1.58180093,36.2900863 C1.18878761,36.0925417 0.716792523,36.2641195 0.527130953,36.6727947 C0.337469383,37.0814699 0.502172712,37.5727566 0.894975408,37.7700821 L4.4875931,39.574498 C4.59827289,39.6301567 4.71527123,39.6564522 4.830374,39.6564522 C5.12397559,39.6564522 5.40599318,39.4853126 5.54215776,39.1917896 C5.73192464,38.7830049 5.56722131,38.2919373 5.17441862,38.0945022 Z" id="Shape"></path>
            <path d="M8.61502095,35.4879367 L1.60139186,31.980562 C1.20166911,31.7806891 0.721380418,31.95426 0.528429284,32.368322 C0.335585286,32.782273 0.503145294,33.279902 0.902760912,33.4797749 L7.91639,36.9871497 C8.02898946,37.0434159 8.14801707,37.0701618 8.26511623,37.0701618 C8.56381015,37.0701618 8.85071917,36.8968129 8.98924544,36.5995006 C9.18219658,36.1853277 9.01463657,35.6876986 8.61502095,35.4879367 Z" id="Shape"></path>
        </g>
    </g>
</svg>