<?xml version="1.0" encoding="utf-8"?>
<!-- Generator: Adobe Illustrator 21.0.2, SVG Export Plug-In . SVG Version: 6.00 Build 0)  -->
<svg version="1.1" id="Layer_1" xmlns="http://www.w3.org/2000/svg" xmlns:xlink="http://www.w3.org/1999/xlink" x="0px" y="0px"
	 viewBox="0 0 600 200" style="enable-background:new 0 0 600 200;" xml:space="preserve">
<g>
	<g>
		<g>
			<path d="M83.7,130.5c112.3-2.9,224.7-3.5,337-1.6c31.9,0.5,63.8,1.3,95.7,2.2c1.5,0,1.5-2.3,0-2.4c-112.3-3.2-224.6-4-337-2.5
				c-31.9,0.5-63.8,1.1-95.7,1.9C82.1,128.2,82.1,130.6,83.7,130.5L83.7,130.5z"/>
		</g>
	</g>
	<g>
		<g>
			<path d="M220.3,69.3c-6.7,7.7-12.7,16-17.7,25c-4.5,8.1-8.9,16.8-8.9,26.3c0,1.5,2.4,1.5,2.4,0c0-9.6,4.8-18.5,9.5-26.6
				c4.7-8.2,10.2-15.8,16.4-22.9C223,69.8,221.3,68.1,220.3,69.3L220.3,69.3z"/>
		</g>
	</g>
	<g>
		<g>
			<path d="M246.5,90.3c-6.4,4.9-11.7,10.9-15.8,18c-0.3,0.5-0.1,1.3,0.4,1.6c7,3.6,15.2-4.8,19.5-9.4c1.6-1.7,4.4-4.4,2.3-6.8
				c-2.3-2.6-7.4-1.7-10.2-0.8c-1.5,0.4-0.8,2.7,0.6,2.3c1.3-0.4,2.6-0.7,3.9-0.7c0.8,0.1,1.7,0.2,2.5,0.3c0,1,0,2.1,0.1,3.1
				c-0.7,1.5-3.1,3.3-4.3,4.3c-3,2.7-8.7,8.1-13.3,5.8c0.1,0.5,0.3,1.1,0.4,1.6c3.8-6.7,8.8-12.4,14.9-17.1
				C248.9,91.4,247.7,89.4,246.5,90.3L246.5,90.3z"/>
		</g>
	</g>
	<g>
		<g>
			<path d="M259.8,93.5c0.5,2.9,0.6,6,1.4,8.8c0.4,1.4,1.2,2.4,2.7,2c1.9-0.4,3.4-3,4.6-4.3c2-2.2,4-4.5,5.9-6.7
				c1-1.1-0.7-2.8-1.7-1.7c-2.5,2.8-5,5.6-7.5,8.4c-0.4,0.4-1.1,1.7-1.8,1.6c-0.2,0-0.4-2.8-0.5-2.9c-0.3-2-0.6-3.9-0.9-5.9
				C261.9,91.4,259.6,92,259.8,93.5L259.8,93.5z"/>
		</g>
	</g>
	<g>
		<g>
			<path d="M293.7,103.1c6.9-0.7,12.5-4,16.5-9.6c0.2-0.3,0.2-0.9,0-1.2c-4.7-7.6-15.6,6.7-13.8,12.6c1.3,4.3,5.9,4.9,9.8,4.6
				c7.2-0.6,14.1-2.9,20.7-5.9c1.4-0.7,0.2-2.7-1.2-2.1c-4.1,1.9-8.4,3.5-12.9,4.5c-2.1,0.5-4.4,0.9-6.6,1.1
				c-0.9,0.1-1.8,0.1-2.7,0.1c-2.7,0.3-4-0.9-4-3.5c-1.1-3.3-0.2-6.2,2.9-8.3c0.4-0.4,0.7-0.7,1.1-1.1c3.2-0.8,3.8-0.5,2,0.9
				c-1.6,3.4-8.7,5.1-11.9,5.4C292.2,100.9,292.1,103.2,293.7,103.1L293.7,103.1z"/>
		</g>
	</g>
	<g>
		<g>
			<path d="M168.6,90.8c-10.3,9.5-20.2,19.4-29.7,29.6c-1,1.1,0.6,2.8,1.7,1.7c9.6-10.2,19.5-20.1,29.7-29.6
				C171.4,91.5,169.8,89.8,168.6,90.8L168.6,90.8z"/>
		</g>
	</g>
	<g>
		<g>
			<path d="M137.4,97c2.1-0.4,8.5,12.7,9.6,14.5c2.7,4.5,5.5,9.1,8.2,13.6c0.8,1.3,2.9,0.1,2.1-1.2c-4.1-6.8-8.2-13.6-12.3-20.5
				c-1.8-2.9-3.9-9.5-8.2-8.8C135.2,95,135.9,97.3,137.4,97L137.4,97z"/>
		</g>
	</g>
	<g>
		<g>
			<path d="M369.7,91.3c-4.4-0.3-7.5,2.6-10.3,5.6c-3.7,3.8-6.9,8.1-9.8,12.6c-0.3,0.5-0.1,1.4,0.4,1.6c2.9,1.3,5-0.3,7.2-2.2
				c4.6-4.1,9.2-8.3,13.7-12.5c-0.7-0.4-1.3-0.8-2-1.2c-2.6,6.3-4.9,12.6-5.2,19.4c0,0.6,0.6,1.2,1.2,1.2c2.7,0,4.8-0.8,6.8-2.6
				c1.2-1-0.5-2.7-1.7-1.7c-1.5,1.4-3.2,2.1-5.1,1.9c0.4,0.4,0.8,0.8,1.2,1.2c0.3-6.6,2.7-12.7,5.1-18.8c0.5-1.2-1.2-1.9-2-1.2
				c-2.6,2.4-5.2,4.7-7.9,7.1c-1.7,1.5-7.6,8.4-10.2,7.2c0.1,0.5,0.3,1.1,0.4,1.6c3.3-5.3,10.7-17.6,18-17
				C371.2,93.8,371.2,91.5,369.7,91.3L369.7,91.3z"/>
		</g>
	</g>
	<g>
		<g>
			<path d="M395.8,70.5c-7.8,14.1-13.2,29.2-16.1,45c-0.3,1.5,2,2.1,2.3,0.6c2.9-15.6,8.2-30.5,15.9-44.4
				C398.6,70.4,396.5,69.2,395.8,70.5L395.8,70.5z"/>
		</g>
	</g>
	<g>
		<g>
			<path d="M395.9,95.6c-2.2,6.3-3.4,12.8-3.6,19.4c0,1,1.3,1.6,2,0.8c1.7-1.8,3.4-3.5,5.1-5.3c0.8-0.9,2.7-3.5,3.8-4
				c2.3-1.1,4.4,1.4,6.9,0.9c6.5-1.4,5.9-10,10.8-13.1c1.3-0.8,0.1-2.9-1.2-2.1c-2.1,1.3-3.2,2.9-4.3,5.1c-0.7,1.3-1,2.9-1.9,4.2
				c-1.1,2.3-3.3,3.2-6.7,2.8c-0.4-0.3-0.8-0.5-1.2-0.7c-2,0.2-2.4-0.1-4.1,1.3c-3.3,2.6-6.1,6.3-9,9.3c0.7,0.3,1.4,0.6,2,0.8
				c0.2-6.5,1.4-12.7,3.5-18.8C398.7,94.8,396.4,94.2,395.9,95.6L395.9,95.6z"/>
		</g>
	</g>
	<g>
		<g>
			<path d="M430,93.5c-3.4,2.8-5.5,6.7-5.9,11.1c-0.1,1.3,1.6,1.5,2.2,0.6c1.8-2.6,3.7-5.2,5.5-7.8c-0.7-0.2-1.5-0.4-2.2-0.6
				c-0.2,2.8,0.7,5.3,2.4,7.4c1,1.2,2.7-0.5,1.7-1.7c-1.4-1.7-1.9-3.6-1.7-5.7c0.1-1.3-1.6-1.5-2.2-0.6c-1.8,2.6-3.7,5.2-5.5,7.8
				c0.7,0.2,1.5,0.4,2.2,0.6c0.4-3.8,2.3-7,5.3-9.4C432.9,94.2,431.2,92.6,430,93.5L430,93.5z"/>
		</g>
	</g>
	<g>
		<g>
			<path d="M436.3,96.9c0.5,3.1,0.3,9,5,7.8c4.5-1.2,8.5-7.9,11.1-11.4c-0.7-0.2-1.5-0.4-2.2-0.6c0.7,9.1-1.5,17.5-6.7,25
				c0.7,0,1.4,0,2.1,0c0-0.4,0-0.9-0.1-1.3c0.5-1.5-1.8-2.1-2.3-0.6c-0.5,1.6-0.4,1.7,0.3,3.2c0.4,0.9,1.6,0.7,2.1,0
				c5.4-7.8,7.8-16.8,7-26.2c-0.1-1.2-1.5-1.6-2.2-0.6c-1.8,2.4-3.7,5.3-6,7.2c-0.8,0.7-4,2.8-5,1.8c-0.4-0.4-0.6-4.2-0.7-4.8
				C438.4,94.7,436.1,95.4,436.3,96.9L436.3,96.9z"/>
		</g>
	</g>
	<g>
		<g>
			<path d="M474.7,87.4c-3.5,0.8-6.3,3.4-6.7,7.1c-0.3,2.2,0.7,4,1.3,6c1.4,5.2-2.3,9.8-7.6,9.6c0.1,0.8,0.2,1.6,0.3,2.3
				c15.7-5.5,31.3-11.1,47-16.6c1.4-0.5,0.8-2.8-0.6-2.3c-15.7,5.5-31.3,11.1-47,16.6c-1.3,0.4-1.1,2.3,0.3,2.3
				c4.2,0.2,7.9-2.1,9.6-6c2.5-5.7-4.9-14.7,4-16.8C476.8,89.4,476.2,87.1,474.7,87.4L474.7,87.4z"/>
		</g>
	</g>
</g>
</svg>
