<?xml version="1.0" encoding="utf-8"?>
<!-- Generator: Adobe Illustrator 21.0.2, SVG Export Plug-In . SVG Version: 6.00 Build 0)  -->
<svg version="1.1" id="Layer_1" xmlns="http://www.w3.org/2000/svg" xmlns:xlink="http://www.w3.org/1999/xlink" x="0px" y="0px"
	 viewBox="0 0 430 99" style="enable-background:new 0 0 430 99;" xml:space="preserve">
<g>
	<path d="M41.4,45.8H24.1V75c0,1.9,0,3.7,0.1,5.3c0.1,1.6,0.4,3,1,4.2c0.6,1.2,1.5,2.2,2.6,2.9c1.2,0.7,2.8,1.1,5,1.1
		c1.4,0,2.9-0.2,4.4-0.5c1.5-0.3,2.9-0.8,4.2-1.5l0.4,8.9c-1.7,0.8-3.5,1.3-5.6,1.6c-2,0.3-4,0.5-5.8,0.5c-3.5,0-6.3-0.5-8.4-1.4
		c-2.1-0.9-3.7-2.2-4.9-3.9c-1.2-1.7-1.9-3.7-2.3-6.2c-0.4-2.5-0.6-5.2-0.6-8.2V45.8H1.6v-8.2h12.8V20.9h9.8v16.6h17.2V45.8z"/>
	<path d="M58.5,1.5h9.8v44.1h0.2c0.7-1.2,1.6-2.3,2.8-3.4c1.2-1.1,2.6-2.1,4.2-3.1c1.6-0.9,3.4-1.7,5.4-2.2c2-0.6,4.1-0.9,6.4-0.9
		c3.8,0,7.1,0.6,9.9,1.8c2.8,1.2,5.1,2.8,6.9,4.9c1.8,2.1,3.2,4.6,4.1,7.6c0.9,3,1.3,6.2,1.3,9.7V96h-9.8V60.9
		c0-4.9-1.1-8.8-3.2-11.6c-2.2-2.8-5.5-4.2-10.1-4.2c-3.2,0-5.9,0.5-8.2,1.6c-2.3,1.1-4.2,2.6-5.6,4.6c-1.5,2-2.5,4.4-3.2,7.1
		c-0.7,2.8-1.1,5.8-1.1,9.1V96h-9.8V1.5z"/>
	<path d="M185.2,85.4c-3.5,4.5-7.3,7.6-11.5,9.4c-4.2,1.8-9,2.7-14.5,2.7c-4.6,0-8.7-0.8-12.4-2.4c-3.7-1.6-6.8-3.8-9.3-6.6
		c-2.5-2.8-4.5-6-5.9-9.8s-2.1-7.8-2.1-12c0-4.5,0.8-8.6,2.2-12.4c1.5-3.8,3.6-7,6.2-9.8c2.7-2.7,5.8-4.8,9.5-6.3
		c3.7-1.5,7.7-2.2,12-2.2c4.1,0,7.8,0.7,11.2,2.1c3.4,1.4,6.4,3.4,8.8,6c2.5,2.6,4.4,5.8,5.7,9.6c1.3,3.8,2,8.1,2,12.9v3.1h-47.2
		c0.2,2.5,0.8,4.9,1.8,7.2c1,2.3,2.4,4.3,4.1,6c1.7,1.7,3.6,3.1,5.9,4.1s4.7,1.5,7.4,1.5c4.2,0,7.8-0.8,10.8-2.2
		c2.9-1.5,5.5-3.7,7.9-6.6L185.2,85.4z M176.9,61.5c-0.2-5-1.8-9-4.9-12c-3.1-3-7.3-4.5-12.8-4.5c-5.4,0-9.8,1.5-13.1,4.5
		c-3.3,3-5.3,7-6,12H176.9z"/>
	<path d="M208.7,80.6c1.9,2.4,4,4.3,6.3,5.8c2.3,1.4,5.2,2.1,8.7,2.1c1.5,0,3-0.2,4.6-0.5c1.5-0.3,2.9-0.9,4.2-1.6s2.2-1.7,3-2.8
		s1.1-2.5,1.1-4.1c0-1.6-0.4-2.9-1.1-3.9c-0.7-1-1.6-1.9-2.8-2.6c-1.2-0.7-2.5-1.3-4-1.7c-1.5-0.4-3-0.8-4.6-1.1
		c-2.8-0.6-5.4-1.2-7.9-2s-4.7-1.7-6.6-2.9c-1.9-1.2-3.4-2.8-4.5-4.7c-1.1-1.9-1.7-4.4-1.7-7.4c0-2.8,0.6-5.3,1.9-7.5
		c1.2-2.2,2.9-4,5-5.4c2.1-1.4,4.4-2.5,7-3.2c2.6-0.8,5.2-1.1,8-1.1c4.2,0,8,0.8,11.6,2.5c3.5,1.7,6.3,4.4,8.3,8.1l-8.1,5.4
		c-1.2-2.1-2.9-3.8-4.9-5.1c-2-1.3-4.5-1.9-7.4-1.9c-1.3,0-2.7,0.2-4.1,0.5c-1.4,0.3-2.6,0.8-3.7,1.5c-1.1,0.7-2,1.5-2.7,2.6
		c-0.7,1-1.1,2.2-1.1,3.6c0,1.2,0.4,2.3,1.2,3.2c0.8,0.9,1.9,1.6,3.2,2.3c1.4,0.7,3,1.2,4.8,1.8c1.8,0.5,3.6,0.9,5.6,1.2
		c2.6,0.5,5,1.1,7.4,1.9c2.3,0.8,4.4,1.9,6.1,3.2c1.8,1.3,3.1,3,4.1,5s1.5,4.5,1.5,7.4c0,3.3-0.7,6.2-2,8.5
		c-1.3,2.3-3.1,4.2-5.3,5.7c-2.2,1.5-4.7,2.5-7.5,3.2c-2.8,0.7-5.6,1-8.6,1c-5,0-9.3-0.8-12.9-2.3s-6.9-4.4-9.8-8.6L208.7,80.6z"/>
	<path d="M318,85.4c-3.5,4.5-7.3,7.6-11.5,9.4c-4.2,1.8-9,2.7-14.5,2.7c-4.6,0-8.7-0.8-12.4-2.4c-3.7-1.6-6.8-3.8-9.3-6.6
		c-2.5-2.8-4.5-6-5.9-9.8s-2.1-7.8-2.1-12c0-4.5,0.8-8.6,2.2-12.4c1.5-3.8,3.6-7,6.2-9.8c2.7-2.7,5.8-4.8,9.5-6.3
		c3.7-1.5,7.7-2.2,12-2.2c4.1,0,7.8,0.7,11.2,2.1c3.4,1.4,6.4,3.4,8.8,6c2.5,2.6,4.4,5.8,5.7,9.6c1.3,3.8,2,8.1,2,12.9v3.1h-47.2
		c0.2,2.5,0.8,4.9,1.8,7.2c1,2.3,2.4,4.3,4.1,6c1.7,1.7,3.6,3.1,5.9,4.1s4.7,1.5,7.4,1.5c4.2,0,7.8-0.8,10.8-2.2
		c2.9-1.5,5.5-3.7,7.9-6.6L318,85.4z M309.6,61.5c-0.2-5-1.8-9-4.9-12c-3.1-3-7.3-4.5-12.8-4.5c-5.4,0-9.8,1.5-13.1,4.5
		c-3.3,3-5.3,7-6,12H309.6z"/>
	<path d="M340.2,51.4c0-2.7-0.1-5.2-0.2-7.5c-0.2-2.3-0.2-4.5-0.2-6.4h9.2c0,1.6,0,3.2,0.1,4.8c0.1,1.6,0.1,3.2,0.1,4.9h0.2
		c0.7-1.4,1.6-2.8,2.8-4.1c1.2-1.3,2.6-2.5,4.3-3.6c1.7-1,3.5-1.9,5.6-2.5c2.1-0.6,4.3-0.9,6.8-0.9c3.2,0,5.8,0.4,7.9,1.2
		c2.1,0.8,3.9,1.8,5.3,2.9c1.4,1.1,2.5,2.3,3.3,3.6c0.8,1.3,1.4,2.4,1.9,3.4c2.2-3.5,4.7-6.2,7.5-8.2c2.8-2,6.5-2.9,11-2.9
		c4.2,0,7.7,0.6,10.5,1.7c2.8,1.1,5.1,2.8,6.9,4.9s3,4.7,3.8,7.8c0.8,3,1.1,6.4,1.1,10.2V96h-9.8V61c0-2-0.2-4-0.6-5.9
		c-0.4-1.9-1.2-3.6-2.2-5.1c-1.1-1.5-2.5-2.7-4.4-3.6c-1.8-0.9-4.2-1.4-7-1.4c-2.1,0-4,0.4-5.9,1.2c-1.8,0.8-3.4,2-4.8,3.5
		s-2.5,3.3-3.2,5.4c-0.8,2.1-1.2,4.5-1.2,7.1V96h-9.8V62.9c0-6.5-0.9-11.1-2.6-13.8c-1.8-2.7-4.6-4.1-8.6-4.1
		c-3.2,0-5.9,0.5-8.2,1.6c-2.3,1.1-4.2,2.6-5.6,4.6c-1.5,2-2.5,4.4-3.2,7.1c-0.7,2.8-1.1,5.8-1.1,9.1V96h-9.8V51.4z"/>
</g>
</svg>
