<?xml version="1.0" encoding="utf-8"?>
<!-- Generator: Adobe Illustrator 21.0.2, SVG Export Plug-In . SVG Version: 6.00 Build 0)  -->
<svg version="1.1" id="Layer_1" xmlns="http://www.w3.org/2000/svg" xmlns:xlink="http://www.w3.org/1999/xlink" x="0px" y="0px"
	 viewBox="0 0 626 176" style="enable-background:new 0 0 626 176;" xml:space="preserve">
<g>
	<path d="M39.5,97l-8.9,72H9l8.9-72H5.7l2.4-20h12.2l5.3-42.7h21.6L41.9,77h19.9l-2.4,20H39.5z"/>
	<path d="M110.1,4.1l-10,80.8c8.7-6.7,17.4-10.1,26.4-10.1c9,0,16.1,2.4,21.5,7.1c5.5,4.7,8.3,10.8,8.3,18.5c0,1.8-0.1,3.9-0.3,6.2
		c-0.2,2.3-0.5,4.9-0.8,7.9l-6.7,54.6h-21.6l6.8-55.8c0.4-3,0.6-5.7,0.6-8.1c0-8.2-4.8-12.3-14.5-12.3c-13.8,0-21.8,9.3-24.1,28
		l-6,48.1H68.2L88.5,4.1H110.1z"/>
	<path d="M200.7,130.7c0,6.8,2.3,12.3,7,16.7c4.8,4.4,10.8,6.5,18.2,6.5c10.1,0,17.8-3.8,23.2-11.3l16.1,8.9
		c-5.6,7.6-11.4,12.8-17.3,15.8c-6,3.1-13.5,4.6-22.5,4.6c-14.3,0-25.6-4.2-34.1-12.6c-8.5-8.4-12.7-19.6-12.7-33.7
		c0-14.7,4.7-27,14-36.9c9.2-9.8,20.9-14.7,35.1-14.7c13.7,0,24.4,4.4,32.3,13.3c8,8.9,12,20.9,12,35.8c0,1.6-0.1,4.1-0.3,7.6H200.7
		z M250.2,113.3c-2.3-14.2-10.1-21.3-23.5-21.3c-12.7,0-21,7.1-24.8,21.3H250.2z"/>
	<path d="M356.9,87.2l-12.2,12.2c-5.7-5.1-11-7.7-15.9-7.7c-3.3,0-6.1,0.9-8.3,2.8c-2.2,1.9-3.3,4.2-3.3,6.9c0,2.7,0.9,4.9,2.7,6.7
		c1.8,1.9,5.6,4.4,11.4,7.6c8.3,4.6,13.8,8.9,16.6,12.7c3,3.8,4.5,8.7,4.5,14.7c0,8.7-3,15.7-9.1,21c-6.2,5.2-14.2,7.8-24.1,7.8
		c-13.5,0-24.6-6.1-33.5-18.3l14.2-9.9c5.8,7,12,10.4,18.6,10.4c3.7,0,6.7-1,8.9-2.9s3.4-4.5,3.4-7.6c0-2.7-0.9-4.9-2.8-6.6
		c-0.9-0.8-2.5-2-4.8-3.5c-2.3-1.5-5.4-3.3-9.3-5.4c-6.9-3.8-11.7-7.6-14.4-11.2c-2.7-3.8-4-8.5-4-14.1c0-8.3,3.1-15.2,9.2-20.7
		c6.1-5.5,13.9-8.2,23.3-8.2C338.6,74,348.2,78.4,356.9,87.2z"/>
	<path d="M393.7,130.7c0,6.8,2.3,12.3,7,16.7c4.8,4.4,10.8,6.5,18.2,6.5c10.1,0,17.8-3.8,23.2-11.3l16.1,8.9
		c-5.6,7.6-11.4,12.8-17.3,15.8c-6,3.1-13.5,4.6-22.5,4.6c-14.3,0-25.6-4.2-34.1-12.6c-8.5-8.4-12.7-19.6-12.7-33.7
		c0-14.7,4.7-27,14-36.9c9.2-9.8,20.9-14.7,35.1-14.7c13.7,0,24.4,4.4,32.3,13.3c8,8.9,12,20.9,12,35.8c0,1.6-0.1,4.1-0.3,7.6H393.7
		z M443.2,113.3c-2.3-14.2-10.1-21.3-23.5-21.3c-12.7,0-21,7.1-24.8,21.3H443.2z"/>
	<path d="M517.4,77l-1,8.6c7.3-7.3,15.7-10.9,25.3-10.9c5.8,0,10.3,1.1,13.4,3.2c3.1,2,5.9,5.8,8.4,11.4
		c9.1-9.7,18.9-14.6,29.5-14.6c18.2,0,27.3,8.4,27.3,25.1c0,1.7-0.1,4.1-0.4,7.1c-0.3,3.1-0.7,6.8-1.2,11.3l-6.2,50.7h-21.6
		l6.6-53.2c0.6-4.9,0.9-8.6,0.9-10.9c0-8-4-12-12.1-12c-3.2,0-6,0.5-8.3,1.4c-2.3,0.9-4.3,2.4-6,4.4c-1.7,2-3,4.6-4.1,7.7
		c-1.1,3.2-1.9,6.9-2.5,11.3l-6.2,51.4h-21.6l6.7-54.6c0.6-4.9,0.9-8.3,0.9-10.2c0-7.6-4.1-11.4-12.4-11.4c-12,0-19,8.3-21,24.9
		l-6.3,51.3h-21.6l11.3-92H517.4z"/>
</g>
</svg>
