<?xml version="1.0" encoding="utf-8"?>
<!-- Generator: Adobe Illustrator 21.0.2, SVG Export Plug-In . SVG Version: 6.00 Build 0)  -->
<svg version="1.1" id="Layer_1" xmlns="http://www.w3.org/2000/svg" xmlns:xlink="http://www.w3.org/1999/xlink" x="0px" y="0px"
	 viewBox="0 0 634 81" style="enable-background:new 0 0 634 81;" xml:space="preserve">
<g>
	<path d="M63.2,11.5H37.3v66h-9.3v-66H2.2V3.3h61V11.5z"/>
	<path d="M115,3.3h9.3v31.5H166V3.3h9.3v74.2H166V42.9h-41.7v34.6H115V3.3z"/>
	<path d="M235.5,3.3h49.1v8.2h-39.9v23.3H282v8.2h-37.2v26.4h41.9v8.2h-51.1V3.3z"/>
	<path d="M379,16.4c-1.5-2.4-3.6-4.1-6.2-5.2c-2.6-1.1-5.3-1.6-8.1-1.6c-2.1,0-4.1,0.2-6.1,0.7c-2,0.5-3.8,1.2-5.4,2.2
		c-1.6,1-2.9,2.3-3.8,3.9c-1,1.6-1.4,3.5-1.4,5.7c0,1.7,0.3,3.2,0.8,4.5c0.6,1.3,1.5,2.5,2.7,3.5c1.3,1,2.9,2,5.1,2.9
		c2.1,0.9,4.7,1.8,7.8,2.7c3,0.9,5.9,1.9,8.8,2.9c2.8,1,5.3,2.4,7.5,4c2.2,1.6,3.9,3.6,5.2,6c1.3,2.4,1.9,5.4,1.9,9.1
		c0,3.7-0.8,6.9-2.3,9.6s-3.6,5-6.1,6.8c-2.5,1.8-5.5,3.1-8.8,4s-6.7,1.3-10.3,1.3c-2.3,0-4.6-0.2-6.8-0.6c-2.3-0.4-4.5-1-6.6-1.8
		c-2.1-0.8-4.1-1.9-5.9-3.1c-1.8-1.3-3.4-2.9-4.7-4.8l8-6.2c1.7,2.7,4,4.8,7.1,6.2c3,1.4,6.2,2.1,9.6,2.1c2,0,4-0.3,6-0.8
		c2-0.6,3.8-1.4,5.5-2.5c1.6-1.1,2.9-2.4,4-4c1-1.6,1.5-3.5,1.5-5.6c0-2.3-0.4-4.2-1.2-5.6c-0.8-1.4-2.1-2.7-3.8-3.7
		c-1.7-1-3.8-2-6.4-2.8c-2.6-0.8-5.6-1.8-9.1-2.9c-2.8-0.8-5.4-1.8-7.7-2.9c-2.4-1.1-4.4-2.4-6.1-4c-1.7-1.6-3.1-3.5-4.1-5.7
		c-1-2.2-1.5-4.8-1.5-7.9c0-3.6,0.7-6.7,2.2-9.3c1.5-2.7,3.5-4.9,6-6.7c2.5-1.8,5.3-3.1,8.5-4c3.2-0.9,6.5-1.4,9.9-1.4
		c4.4,0,8.4,0.6,12.1,1.9c3.6,1.3,6.9,3.5,9.8,6.8L379,16.4z"/>
	<path d="M444.1,3.3h49.1v8.2h-39.9v23.3h37.2v8.2h-37.2v26.4h41.9v8.2h-51.1V3.3z"/>
	<path d="M550.5,3.3h13.8l26.5,58.2h0.2l26.7-58.2h13.5v74.2h-9.3V15.3h-0.2l-28,62.3H588l-28-62.3h-0.2v62.3h-9.3V3.3z"/>
</g>
</svg>
