<?xml version="1.0" encoding="utf-8"?>
<!-- Generator: Adobe Illustrator 21.0.2, SVG Export Plug-In . SVG Version: 6.00 Build 0)  -->
<svg version="1.1" id="Layer_1" xmlns="http://www.w3.org/2000/svg" xmlns:xlink="http://www.w3.org/1999/xlink" x="0px" y="0px"
	 viewBox="0 0 594 88" style="enable-background:new 0 0 594 88;" xml:space="preserve">
<g>
	<path d="M42.9,14.7V86H28.7V14.7H2.2V2h67.3v12.7H42.9z"/>
	<path d="M159.1,86V51.2h-44.5V86h-14.2V2h14.2v36.5h44.5V2h14.2v84H159.1z"/>
	<path d="M228.4,14.7v22.7h41v12.7h-41v23.2h47.3V86h-61.4V2h60v12.7H228.4z"/>
	<path d="M368.8,10l-5.9,12.5c-9.1-5.5-18.2-7.8-24.6-7.8c-8.3,0-13.7,3.1-13.7,8.8c0,18.4,45.4,8.5,45.2,38.8
		c0,15-13.2,24.2-31.7,24.2c-13.2,0-25.7-5.4-34.3-13.3l6.1-12.2c8.6,7.9,19.4,12.2,28.4,12.2c9.8,0,15.7-3.7,15.7-10.2
		c0-18.7-45.4-8.3-45.4-38.2c0-14.4,12.4-23.4,30.6-23.4C350.3,1.4,361,4.9,368.8,10z"/>
	<path d="M419.4,14.7v22.7h41v12.7h-41v23.2h47.3V86h-61.4V2h60v12.7H419.4z"/>
	<path d="M578.5,86l-0.1-62.8l-26.5,54h-9.2l-26.5-54V86h-13.3V2h16.8l27.7,55.8L574.9,2h16.7v84H578.5z"/>
</g>
</svg>
